<svg width="551" height="93" viewBox="0 0 551 93" fill="none" xmlns="http://www.w3.org/2000/svg">
<path d="M28.0596 84.1965C19.7084 78.6688 11.5422 73.507 3.72312 67.944C1.9052 66.6506 0.316161 64.0164 0.249162 61.9556C-0.0982929 51.2693 -0.0559746 40.566 0.213698 29.8762C0.258523 28.0992 1.60541 25.7624 3.18246 24.6978C14.8493 16.8224 26.7728 9.26047 38.5048 1.46279C41.3005 -0.395458 43.4743 -0.549326 46.3596 1.38241C58.357 9.4145 70.5529 17.203 82.5215 25.2694C83.8377 26.1565 84.815 28.2448 84.8412 29.7914C85.0195 40.3164 85.1323 50.8533 84.7027 61.3675C84.6043 63.7736 82.9786 66.9014 80.909 68.3401C69.3681 76.3633 57.4129 83.8942 45.7487 91.7752C43.1303 93.5443 41.4101 93.3359 39.0415 91.5436C35.6558 88.9818 31.9437 86.7749 28.0596 84.1965ZM66.659 34.917C70.0495 32.6747 73.44 30.4324 77.2784 27.8939C65.4108 20.0983 54 12.6028 42.5026 5.0504C30.744 12.7207 19.2955 20.1887 7.34264 27.9857C19.3413 35.7095 30.8469 43.1158 42.4953 50.6141C50.4793 45.4231 58.2425 40.3758 66.659 34.917ZM31.2488 49.7774C22.785 44.3633 14.3212 38.9492 5.07045 33.0318C5.07045 42.9444 5.02707 51.7625 5.12772 60.5791C5.13972 61.6302 5.59072 63.0945 6.42237 63.6572C17.1301 70.9024 27.9441 78.0185 39.6108 85.7502C39.6108 77.603 39.0965 70.4525 39.7638 63.3938C40.3619 57.0656 38.1208 52.8415 31.2488 49.7774ZM55.5863 79.0567C62.5837 74.4622 69.6145 69.9085 76.5474 65.2353C77.7769 64.4066 79.4476 63.098 79.4756 61.9814C79.7102 52.6049 79.6091 43.2214 79.6091 32.9442C68.1922 40.3876 57.7581 47.166 47.3749 54.008C46.5792 54.5323 45.628 55.5004 45.6183 56.2712C45.4984 65.8046 45.54 75.3397 45.54 85.6275C49.3091 83.1655 52.1282 81.3241 55.5863 79.0567Z" fill="#631EEC"/>
<path d="M66.0439 34.7002C57.9466 39.8883 50.1763 44.8733 42.1849 50C30.5258 42.5945 19.0097 35.2798 7 27.6516C18.9639 19.951 30.4229 12.5754 42.1923 5C53.7002 12.459 65.1216 19.8618 77 27.5609C73.1581 30.068 69.7645 32.2825 66.0439 34.7002Z" fill="#FDFDFF"/>
<path d="M31.6564 49.7422C38.254 52.5397 40.5083 56.7063 39.9066 62.9483C39.2355 69.9108 39.7527 76.9639 39.7527 85C28.0174 77.3736 17.1399 70.3546 6.36922 63.2081C5.53268 62.653 5.07903 61.2087 5.06696 60.1719C4.96572 51.4754 5.00935 42.7776 5.00935 33C14.3145 38.8368 22.828 44.1771 31.6564 49.7422Z" fill="#F9F6FE"/>
<path d="M55.7058 78.7246C52.5762 80.7524 49.7653 82.5699 46.007 85C46.007 74.8456 45.9654 65.4342 46.0851 56.0245C46.0947 55.2637 47.0431 54.3081 47.8366 53.7906C58.19 47.0374 68.5943 40.3469 79.9784 33C79.9784 43.1439 80.0792 52.4057 79.8452 61.6606C79.8174 62.7627 78.1514 64.0543 76.9255 64.8723C70.0124 69.4849 63.0018 73.9796 55.7058 78.7246Z" fill="#FCFBFF"/>
<path d="M361.262 55.4517C366.353 54.5477 371.017 53.7773 375.723 53C377.021 62.1395 373.791 66.1773 365.37 66.9028C361.608 67.2269 358.002 66.9042 356.525 63.3623C355.007 59.7202 356.839 57.1251 361.262 55.4517Z" fill="#F7F9FC"/>
<path d="M116.768 70C115.742 70 115.229 69.436 115.229 68.3081V27.5796C115.229 26.4517 115.742 25.8877 116.768 25.8877H123.32C124.099 25.8877 124.684 26.5029 125.073 27.7334L133.871 55.3267C134.773 58.1567 135.307 59.8691 135.471 60.4639C135.635 61.0381 135.871 62.1045 136.178 63.6631H136.363C136.67 62.1045 136.906 61.0381 137.07 60.4639C137.234 59.8691 137.768 58.1567 138.67 55.3267L147.468 27.7334C147.857 26.5029 148.442 25.8877 149.221 25.8877H155.773C156.799 25.8877 157.312 26.4517 157.312 27.5796V68.3081C157.312 69.436 156.799 70 155.773 70H152.943C151.918 70 151.405 69.436 151.405 68.3081V36.0391C151.405 35.2188 151.426 34.3984 151.467 33.5781H151.344L139.993 68.1235C139.583 69.3745 138.906 70 137.962 70H134.579C133.635 70 132.958 69.3745 132.548 68.1235L121.197 33.5781H121.074C121.115 34.3984 121.136 35.2188 121.136 36.0391V68.3081C121.136 69.436 120.623 70 119.598 70H116.768ZM165.156 53.8501C165.156 48.7642 166.427 44.7139 168.97 41.6992C171.513 38.6846 175.153 37.1772 179.891 37.1772C183.828 37.1772 187.089 38.5615 189.673 41.3301C192.277 44.0781 193.58 48.4771 193.58 54.5269C193.58 55.4497 193.159 55.9111 192.318 55.9111H170.877C171.226 59.8691 172.292 62.6274 174.077 64.186C175.861 65.7241 177.881 66.4932 180.137 66.4932C182.516 66.4932 184.341 66.0933 185.612 65.2935C186.884 64.4937 187.817 63.7041 188.412 62.9248C189.068 62.0635 189.704 61.8994 190.319 62.4326L192.134 64.0015C192.605 64.4116 192.605 64.9756 192.134 65.6934C191.744 66.2881 190.626 67.2417 188.781 68.5542C186.956 69.8667 184.074 70.5229 180.137 70.5229C175.01 70.5229 171.226 69.0156 168.786 66.001C166.366 62.9863 165.156 58.936 165.156 53.8501ZM170.754 51.9121H188.135C188.053 49.041 187.314 46.5288 185.92 44.3755C184.525 42.2017 182.475 41.1147 179.768 41.1147C177.389 41.1147 175.369 41.9146 173.708 43.5142C172.046 45.0933 171.062 47.8926 170.754 51.9121ZM198.932 53.8501C198.932 48.7642 200.204 44.7139 202.747 41.6992C205.29 38.6846 208.93 37.1772 213.667 37.1772C217.604 37.1772 220.865 38.5615 223.449 41.3301C226.054 44.0781 227.356 48.4771 227.356 54.5269C227.356 55.4497 226.936 55.9111 226.095 55.9111H204.654C205.002 59.8691 206.069 62.6274 207.853 64.186C209.637 65.7241 211.657 66.4932 213.913 66.4932C216.292 66.4932 218.117 66.0933 219.389 65.2935C220.66 64.4937 221.593 63.7041 222.188 62.9248C222.844 62.0635 223.48 61.8994 224.095 62.4326L225.91 64.0015C226.382 64.4116 226.382 64.9756 225.91 65.6934C225.521 66.2881 224.403 67.2417 222.557 68.5542C220.732 69.8667 217.851 70.5229 213.913 70.5229C208.786 70.5229 205.002 69.0156 202.562 66.001C200.142 62.9863 198.932 58.936 198.932 53.8501ZM204.531 51.9121H221.911C221.829 49.041 221.091 46.5288 219.696 44.3755C218.302 42.2017 216.251 41.1147 213.544 41.1147C211.165 41.1147 209.145 41.9146 207.484 43.5142C205.823 45.0933 204.838 47.8926 204.531 51.9121ZM232.893 41.7607C231.97 41.7607 231.509 41.4019 231.509 40.6841V38.7769C231.509 38.0591 231.97 37.7002 232.893 37.7002H236.523V34.9316C236.523 34.5215 236.625 34.1318 236.831 33.7627L238.984 29.856C239.374 29.1382 239.691 28.7793 239.938 28.7793H241.014C241.629 28.7793 241.937 29.1382 241.937 29.856V37.7002H248.489C249.412 37.7002 249.874 38.0591 249.874 38.7769V40.6841C249.874 41.4019 249.412 41.7607 248.489 41.7607H241.937V61.356C241.937 63.5093 242.255 64.9141 242.891 65.5703C243.547 66.2061 244.326 66.5239 245.229 66.5239C245.926 66.5239 246.756 66.3188 247.72 65.9087C248.705 65.4985 249.381 65.1499 249.75 64.8628C250.12 64.5757 250.407 64.668 250.612 65.1396L251.627 67.5083C251.791 67.9185 251.668 68.2466 251.258 68.4927C250.458 68.9644 249.289 69.4258 247.751 69.877C246.213 70.3076 244.675 70.5229 243.137 70.5229C241.004 70.5229 239.363 69.7539 238.215 68.2158C237.087 66.6777 236.523 64.5039 236.523 61.6943V41.7607H232.893ZM260.179 70C259.153 70 258.641 69.436 258.641 68.3081V27.5796C258.641 26.4517 259.153 25.8877 260.179 25.8877H266.731C267.51 25.8877 268.095 26.5029 268.484 27.7334L277.282 55.3267C278.185 58.1567 278.718 59.8691 278.882 60.4639C279.046 61.0381 279.282 62.1045 279.589 63.6631H279.774C280.082 62.1045 280.317 61.0381 280.481 60.4639C280.646 59.8691 281.179 58.1567 282.081 55.3267L290.879 27.7334C291.269 26.5029 291.853 25.8877 292.632 25.8877H299.185C300.21 25.8877 300.723 26.4517 300.723 27.5796V68.3081C300.723 69.436 300.21 70 299.185 70H296.354C295.329 70 294.816 69.436 294.816 68.3081V36.0391C294.816 35.2188 294.837 34.3984 294.878 33.5781H294.755L283.404 68.1235C282.994 69.3745 282.317 70 281.374 70H277.99C277.046 70 276.37 69.3745 275.959 68.1235L264.608 33.5781H264.485C264.526 34.3984 264.547 35.2188 264.547 36.0391V68.3081C264.547 69.436 264.034 70 263.009 70H260.179ZM308.567 61.3867C308.567 57.7363 310.269 55.0601 313.673 53.3579C317.098 51.6558 322.205 50.6611 328.993 50.374V48.2822C328.993 46.3545 328.552 44.6934 327.67 43.2988C326.809 41.8838 325.086 41.1763 322.502 41.1763C320.861 41.1763 319.549 41.3403 318.564 41.6685C317.58 41.9761 316.678 42.3965 315.857 42.9297C315.058 43.4424 314.289 44.1089 313.55 44.9292C312.997 45.5444 312.474 45.5752 311.981 45.0215L310.382 43.1758C309.931 42.6631 310.084 42.0479 310.843 41.3301C311.93 40.3047 312.986 39.5356 314.012 39.0229C315.037 38.5103 316.309 38.0796 317.826 37.731C319.364 37.3618 320.923 37.1772 322.502 37.1772C326.788 37.1772 329.844 38.2847 331.669 40.4995C333.494 42.6938 334.407 45.7085 334.407 49.5435V68.6157C334.407 69.5386 333.945 70 333.022 70H330.254C329.454 70 329.054 69.5386 329.054 68.6157V67.1084H328.993C327.373 68.3799 325.783 69.272 324.225 69.7847C322.687 70.2769 320.964 70.5229 319.057 70.5229C315.693 70.5229 313.099 69.7231 311.274 68.1235C309.469 66.5034 308.567 64.2578 308.567 61.3867ZM314.166 61.5098C314.166 62.7812 314.432 63.8066 314.965 64.5859C315.499 65.3447 316.237 65.8369 317.18 66.0625C318.124 66.2676 319.108 66.3701 320.133 66.3701C321.712 66.3701 323.209 66.2163 324.625 65.9087C326.04 65.6011 327.496 64.791 328.993 63.4785V54.4038C324.85 54.7114 321.897 55.0908 320.133 55.542C318.37 55.9727 316.934 56.7314 315.827 57.8184C314.719 58.8848 314.166 60.1152 314.166 61.5098ZM341.605 41.7607C340.682 41.7607 340.221 41.4019 340.221 40.6841V38.7769C340.221 38.0591 340.682 37.7002 341.605 37.7002H345.235V34.9316C345.235 34.5215 345.337 34.1318 345.542 33.7627L347.696 29.856C348.085 29.1382 348.403 28.7793 348.649 28.7793H349.726C350.341 28.7793 350.649 29.1382 350.649 29.856V37.7002H357.201C358.124 37.7002 358.585 38.0591 358.585 38.7769V40.6841C358.585 41.4019 358.124 41.7607 357.201 41.7607H350.649V61.356C350.649 63.5093 350.967 64.9141 351.603 65.5703C352.259 66.2061 353.038 66.5239 353.94 66.5239C354.638 66.5239 355.468 66.3188 356.432 65.9087C357.417 65.4985 358.093 65.1499 358.462 64.8628C358.832 64.5757 359.119 64.668 359.324 65.1396L360.339 67.5083C360.503 67.9185 360.38 68.2466 359.97 68.4927C359.17 68.9644 358.001 69.4258 356.463 69.877C354.925 70.3076 353.387 70.5229 351.849 70.5229C349.716 70.5229 348.075 69.7539 346.927 68.2158C345.799 66.6777 345.235 64.5039 345.235 61.6943V41.7607H341.605ZM364.738 53.8501C364.738 48.7642 366.009 44.7139 368.552 41.6992C371.095 38.6846 374.735 37.1772 379.473 37.1772C383.41 37.1772 386.671 38.5615 389.255 41.3301C391.859 44.0781 393.162 48.4771 393.162 54.5269C393.162 55.4497 392.741 55.9111 391.9 55.9111H370.459C370.808 59.8691 371.875 62.6274 373.659 64.186C375.443 65.7241 377.463 66.4932 379.719 66.4932C382.098 66.4932 383.923 66.0933 385.194 65.2935C386.466 64.4937 387.399 63.7041 387.994 62.9248C388.65 62.0635 389.286 61.8994 389.901 62.4326L391.716 64.0015C392.188 64.4116 392.188 64.9756 391.716 65.6934C391.326 66.2881 390.208 67.2417 388.363 68.5542C386.538 69.8667 383.656 70.5229 379.719 70.5229C374.592 70.5229 370.808 69.0156 368.368 66.001C365.948 62.9863 364.738 58.936 364.738 53.8501ZM370.336 51.9121H387.717C387.635 49.041 386.896 46.5288 385.502 44.3755C384.107 42.2017 382.057 41.1147 379.35 41.1147C376.971 41.1147 374.951 41.9146 373.29 43.5142C371.628 45.0933 370.644 47.8926 370.336 51.9121Z" fill="#1559B4"/>
</svg>
