<svg width="85" height="93" viewBox="0 0 85 93" fill="none" xmlns="http://www.w3.org/2000/svg">
<path d="M28.0596 84.1965C19.7084 78.6688 11.5422 73.507 3.72312 67.944C1.9052 66.6506 0.316161 64.0164 0.249162 61.9556C-0.0982929 51.2693 -0.0559746 40.566 0.213698 29.8762C0.258523 28.0992 1.60541 25.7624 3.18246 24.6978C14.8493 16.8224 26.7728 9.26047 38.5048 1.46279C41.3005 -0.395458 43.4743 -0.549326 46.3596 1.38241C58.357 9.4145 70.5529 17.203 82.5215 25.2694C83.8377 26.1565 84.815 28.2448 84.8412 29.7914C85.0195 40.3164 85.1323 50.8533 84.7027 61.3675C84.6043 63.7736 82.9786 66.9014 80.909 68.3401C69.3681 76.3633 57.4129 83.8942 45.7487 91.7752C43.1303 93.5443 41.4101 93.3359 39.0415 91.5436C35.6558 88.9818 31.9437 86.7749 28.0596 84.1965ZM66.659 34.917C70.0495 32.6747 73.44 30.4324 77.2784 27.8939C65.4108 20.0983 54 12.6028 42.5026 5.0504C30.744 12.7207 19.2955 20.1887 7.34264 27.9857C19.3413 35.7095 30.8469 43.1158 42.4953 50.6141C50.4793 45.4231 58.2425 40.3758 66.659 34.917ZM31.2488 49.7774C22.785 44.3633 14.3212 38.9492 5.07045 33.0318C5.07045 42.9444 5.02707 51.7625 5.12772 60.5791C5.13972 61.6302 5.59072 63.0945 6.42237 63.6572C17.1301 70.9024 27.9441 78.0185 39.6108 85.7502C39.6108 77.603 39.0965 70.4525 39.7638 63.3938C40.3619 57.0656 38.1208 52.8415 31.2488 49.7774ZM55.5863 79.0567C62.5837 74.4622 69.6145 69.9085 76.5474 65.2353C77.7769 64.4066 79.4476 63.098 79.4756 61.9814C79.7102 52.6049 79.6091 43.2214 79.6091 32.9442C68.1922 40.3876 57.7581 47.166 47.3749 54.008C46.5792 54.5323 45.628 55.5004 45.6183 56.2712C45.4984 65.8046 45.54 75.3397 45.54 85.6275C49.3091 83.1655 52.1282 81.3241 55.5863 79.0567Z" fill="#631EEC"/>
<path d="M66.0439 34.7002C57.9466 39.8883 50.1763 44.8733 42.1849 50C30.5258 42.5945 19.0097 35.2798 7 27.6516C18.9639 19.951 30.4229 12.5754 42.1923 5C53.7002 12.459 65.1216 19.8618 77 27.5609C73.1581 30.068 69.7645 32.2825 66.0439 34.7002Z" fill="#FDFDFF"/>
<path d="M31.6564 49.7422C38.254 52.5397 40.5083 56.7063 39.9066 62.9483C39.2355 69.9108 39.7527 76.9639 39.7527 85C28.0174 77.3736 17.1399 70.3546 6.36922 63.2081C5.53268 62.653 5.07903 61.2087 5.06696 60.1719C4.96572 51.4754 5.00935 42.7776 5.00935 33C14.3145 38.8368 22.828 44.1771 31.6564 49.7422Z" fill="#F9F6FE"/>
<path d="M55.7058 78.7246C52.5762 80.7524 49.7653 82.5699 46.007 85C46.007 74.8456 45.9654 65.4342 46.0851 56.0245C46.0947 55.2637 47.0431 54.3081 47.8366 53.7906C58.19 47.0374 68.5943 40.3469 79.9784 33C79.9784 43.1439 80.0792 52.4057 79.8452 61.6606C79.8174 62.7627 78.1514 64.0543 76.9255 64.8723C70.0124 69.4849 63.0018 73.9796 55.7058 78.7246Z" fill="#FCFBFF"/>
</svg>
